<svg width="75" height="83" viewBox="0 0 75 83" fill="none" xmlns="http://www.w3.org/2000/svg">
<path d="M53.625 57.875H37.125V70.25L16.5 49.625L37.125 29V41.375H53.625M37.125 8.375C38.219 8.375 39.2682 8.8096 40.0418 9.58318C40.8154 10.3568 41.25 11.406 41.25 12.5C41.25 13.594 40.8154 14.6432 40.0418 15.4168C39.2682 16.1904 38.219 16.625 37.125 16.625C36.031 16.625 34.9818 16.1904 34.2082 15.4168C33.4346 14.6432 33 13.594 33 12.5C33 11.406 33.4346 10.3568 34.2082 9.58318C34.9818 8.8096 36.031 8.375 37.125 8.375ZM66 8.375H48.7575C47.025 3.59 42.4875 0.125 37.125 0.125C31.7625 0.125 27.225 3.59 25.4925 8.375H8.25C6.06196 8.375 3.96354 9.24419 2.41637 10.7914C0.869194 12.3385 0 14.437 0 16.625V74.375C0 76.563 0.869194 78.6615 2.41637 80.2086C3.96354 81.7558 6.06196 82.625 8.25 82.625H66C68.188 82.625 70.2865 81.7558 71.8336 80.2086C73.3808 78.6615 74.25 76.563 74.25 74.375V16.625C74.25 14.437 73.3808 12.3385 71.8336 10.7914C70.2865 9.24419 68.188 8.375 66 8.375Z" fill="#8C8C8C"/>
</svg>
